<svg width="40" height="40" viewBox="0 0 40 40" fill="none" xmlns="http://www.w3.org/2000/svg">
<path d="M10.4225 21.0042C10.4225 21.8878 9.70613 22.6042 8.82253 22.6042C7.93894 22.6042 7.22253 21.8878 7.22253 21.0042C7.22253 20.1206 7.93894 19.4042 8.82253 19.4042C9.70613 19.4042 10.4225 20.1206 10.4225 21.0042ZM17.562 21.0042C17.562 21.8878 16.8456 22.6042 15.962 22.6042C15.0784 22.6042 14.362 21.8878 14.362 21.0042C14.362 20.1206 15.0784 19.4042 15.962 19.4042C16.8456 19.4042 17.562 20.1206 17.562 21.0042ZM24.7016 21.0042C24.7016 21.8878 23.9852 22.6042 23.1016 22.6042C22.218 22.6042 21.5016 21.8878 21.5016 21.0042C21.5016 20.1206 22.218 19.4042 23.1016 19.4042C23.9852 19.4042 24.7016 20.1206 24.7016 21.0042ZM31.8411 21.0042C31.8411 21.8878 31.1247 22.6042 30.2411 22.6042C29.3575 22.6042 28.6411 21.8878 28.6411 21.0042C28.6411 20.1206 29.3575 19.4042 30.2411 19.4042C31.1247 19.4042 31.8411 20.1206 31.8411 21.0042ZM10.4225 26.537C10.4225 27.4206 9.70613 28.137 8.82253 28.137C7.93894 28.137 7.22253 27.4206 7.22253 26.537C7.22253 25.6534 7.93894 24.937 8.82253 24.937C9.70613 24.937 10.4225 25.6534 10.4225 26.537ZM17.562 26.537C17.562 27.4206 16.8456 28.137 15.962 28.137C15.0784 28.137 14.362 27.4206 14.362 26.537C14.362 25.6534 15.0784 24.937 15.962 24.937C16.8456 24.937 17.562 25.6534 17.562 26.537ZM24.7016 26.537C24.7016 27.4206 23.9852 28.137 23.1016 28.137C22.218 28.137 21.5016 27.4206 21.5016 26.537C21.5016 25.6534 22.218 24.937 23.1016 24.937C23.9852 24.937 24.7016 25.6534 24.7016 26.537ZM31.8411 26.537C31.8411 27.4206 31.1247 28.137 30.2411 28.137C29.3575 28.137 28.6411 27.4206 28.6411 26.537C28.6411 25.6534 29.3575 24.937 30.2411 24.937C31.1247 24.937 31.8411 25.6534 31.8411 26.537ZM10.4225 32.0699C10.4225 32.9534 9.70613 33.6699 8.82253 33.6699C7.93894 33.6699 7.22253 32.9534 7.22253 32.0699C7.22253 31.1863 7.93894 30.4699 8.82253 30.4699C9.70613 30.4699 10.4225 31.1863 10.4225 32.0699ZM17.562 32.0699C17.562 32.9534 16.8456 33.6699 15.962 33.6699C15.0784 33.6699 14.362 32.9534 14.362 32.0699C14.362 31.1863 15.0784 30.4699 15.962 30.4699C16.8456 30.4699 17.562 31.1863 17.562 32.0699ZM24.7016 32.0699C24.7016 32.9534 23.9852 33.6699 23.1016 33.6699C22.218 33.6699 21.5016 32.9534 21.5016 32.0699C21.5016 31.1863 22.218 30.4699 23.1016 30.4699C23.9852 30.4699 24.7016 31.1863 24.7016 32.0699ZM31.8411 32.0699C31.8411 32.9534 31.1247 33.6699 30.2411 33.6699C29.3575 33.6699 28.6411 32.9534 28.6411 32.0699C28.6411 31.1863 29.3575 30.4699 30.2411 30.4699C31.1247 30.4699 31.8411 31.1863 31.8411 32.0699ZM8.91335 3.19993V9.19993C8.91335 9.64177 9.27152 9.99993 9.71335 9.99993C10.1552 9.99993 10.5134 9.64177 10.5134 9.19993V3.19993C10.5134 2.7581 10.1552 2.39993 9.71335 2.39993C9.27152 2.39993 8.91335 2.7581 8.91335 3.19993ZM29.5419 3.19993V9.19993C29.5419 9.64177 29.9 9.99993 30.3419 9.99993C30.7837 9.99993 31.1419 9.64177 31.1419 9.19993V3.19993C31.1419 2.7581 30.7837 2.39993 30.3419 2.39993C29.9 2.39993 29.5419 2.7581 29.5419 3.19993Z" fill="#DEC6C0" stroke="#DEC6C0" stroke-width="0.00064"/>
<path d="M34.7999 5.37177C36.1254 5.37177 37.1999 6.44634 37.1999 7.77177V35.2473C37.1999 36.5728 36.1254 37.6474 34.7999 37.6474H5.19993C3.8745 37.6474 2.79993 36.5728 2.79993 35.2473V7.77177C2.79993 6.44634 3.8745 5.37177 5.19993 5.37177H34.7999ZM5.19993 6.97177C4.75817 6.97177 4.39993 7.33001 4.39993 7.77177V35.2473C4.39993 35.6891 4.75817 36.0474 5.19993 36.0474H34.7999C35.2417 36.0474 35.5999 35.6891 35.5999 35.2473V7.77177C35.5999 7.33001 35.2417 6.97177 34.7999 6.97177H5.19993Z" fill="#DEC6C0" stroke="#DEC6C0" stroke-width="0.00064"/>
<path d="M22.4621 13.2144C22.4621 11.889 21.3875 10.8144 20.0621 10.8144C18.7367 10.8144 17.6621 11.889 17.6621 13.2144C17.6621 14.5398 18.7367 15.6144 20.0621 15.6144C21.3875 15.6144 22.4621 14.5398 22.4621 13.2144ZM24.0621 13.2144C24.0621 15.4234 22.2712 17.2144 20.0621 17.2144C17.8531 17.2144 16.0621 15.4234 16.0621 13.2144C16.0621 11.0054 17.8531 9.21439 20.0621 9.21439C22.2712 9.21439 24.0621 11.0054 24.0621 13.2144Z" fill="#DEC6C0" stroke="#DEC6C0" stroke-width="0.00064"/>
</svg>
