<svg width="39" height="39" viewBox="0 0 39 39" fill="none" xmlns="http://www.w3.org/2000/svg">
<path d="M19.5 20.7188C16.1399 20.7188 13.4062 17.9851 13.4062 14.625C13.4062 11.2649 16.1399 8.53125 19.5 8.53125C22.8601 8.53125 25.5938 11.2649 25.5938 14.625C25.5938 17.9851 22.8601 20.7188 19.5 20.7188ZM19.5 9.75C16.8114 9.75 14.625 11.9364 14.625 14.625C14.625 17.3136 16.8114 19.5 19.5 19.5C22.1886 19.5 24.375 17.3136 24.375 14.625C24.375 11.9364 22.1886 9.75 19.5 9.75Z" fill="#DEC6C0"/>
<path d="M19.4878 36.5259C18.9382 36.5259 18.4226 36.281 18.0741 35.8556C15.4099 32.6052 9.00656 24.403 7.09434 18.4641C6.99197 18.1435 7.16747 17.8011 7.488 17.6975C7.80853 17.5963 8.15222 17.7706 8.25459 18.0911C10.1022 23.8302 16.3971 31.8862 19.0174 35.0829C19.177 35.2779 19.3818 35.3072 19.489 35.3072C19.5963 35.3072 19.7998 35.2779 19.9607 35.0829C22.6017 31.8593 31.2195 20.915 31.2195 15.4233C31.2195 8.95537 25.9569 3.69281 19.489 3.69281C13.3173 3.69281 8.17537 8.51175 7.78294 14.6628C7.761 14.9979 7.46119 15.2405 7.13578 15.2319C6.79941 15.21 6.54469 14.9212 6.56662 14.5848C6.99806 7.79512 12.675 2.47406 19.4878 2.47406C26.6273 2.47406 32.437 8.28384 32.437 15.4233C32.437 21.1587 24.3701 31.6229 20.9016 35.8556C20.5518 36.2822 20.0363 36.5259 19.4878 36.5259Z" fill="#DEC6C0"/>
<path d="M19.5 20.7188C16.1399 20.7188 13.4062 17.9851 13.4062 14.625C13.4062 11.2649 16.1399 8.53125 19.5 8.53125C22.8601 8.53125 25.5938 11.2649 25.5938 14.625C25.5938 17.9851 22.8601 20.7188 19.5 20.7188ZM19.5 9.75C16.8114 9.75 14.625 11.9364 14.625 14.625C14.625 17.3136 16.8114 19.5 19.5 19.5C22.1886 19.5 24.375 17.3136 24.375 14.625C24.375 11.9364 22.1886 9.75 19.5 9.75Z" fill="#DEC6C0"/>
<path d="M19.4878 36.5259C18.9382 36.5259 18.4226 36.281 18.0741 35.8556C15.4099 32.6052 9.00656 24.403 7.09434 18.4641C6.99197 18.1435 7.16747 17.8011 7.488 17.6975C7.80853 17.5963 8.15222 17.7706 8.25459 18.0911C10.1022 23.8302 16.3971 31.8862 19.0174 35.0829C19.177 35.2779 19.3818 35.3072 19.489 35.3072C19.5963 35.3072 19.7998 35.2779 19.9607 35.0829C22.6017 31.8593 31.2195 20.915 31.2195 15.4233C31.2195 8.95537 25.9569 3.69281 19.489 3.69281C13.3173 3.69281 8.17537 8.51175 7.78294 14.6628C7.761 14.9979 7.46119 15.2405 7.13578 15.2319C6.79941 15.21 6.54469 14.9212 6.56662 14.5848C6.99806 7.79512 12.675 2.47406 19.4878 2.47406C26.6273 2.47406 32.437 8.28384 32.437 15.4233C32.437 21.1587 24.3701 31.6229 20.9016 35.8556C20.5518 36.2822 20.0363 36.5259 19.4878 36.5259Z" fill="#DEC6C0"/>
</svg>
